<?xml version="1.0" encoding="UTF-8" standalone="no"?>
<svg
   xmlns:dc="http://purl.org/dc/elements/1.1/"
   xmlns:cc="http://creativecommons.org/ns#"
   xmlns:rdf="http://www.w3.org/1999/02/22-rdf-syntax-ns#"
   xmlns:svg="http://www.w3.org/2000/svg"
   xmlns="http://www.w3.org/2000/svg"
   viewBox="0 0 418.05334 181.16"
   height="181.16"
   width="418.05334"
   xml:space="preserve"
   id="svg2"
   version="1.1"><metadata
     id="metadata8"><rdf:RDF><cc:Work
         rdf:about=""><dc:format>image/svg+xml</dc:format><dc:type
           rdf:resource="http://purl.org/dc/dcmitype/StillImage" /></cc:Work></rdf:RDF></metadata><defs
     id="defs6" /><g
     transform="matrix(1.3333333,0,0,-1.3333333,0,181.16)"
     id="g10"><g
       transform="scale(0.1)"
       id="g12"><path
         id="path14"
         style="fill:#272c73;fill-opacity:1;fill-rule:evenodd;stroke:none"
         d="M 0,919.582 897.883,1011.77 132.219,834.008 0,919.582 Z M 316.41,723.574 207.258,796.84 1009.48,1026.23 316.41,723.574 Z M 494.777,613.316 1156.81,1063.08 379.906,692.551 494.777,613.316 Z M 558.465,588.168 1203.29,1050.1 656.063,521.02 c 0,0 -103.157,78.996 -97.598,67.148 z M 711.438,491.996 1285.81,1071.2 814.961,425.926 711.438,491.996 Z m 150.472,-83.156 470.79,645.3 41.55,-22.26 L 975.602,331.969 861.91,408.84 Z m 149.96,-98.961 379.72,713.821 7.9,-75.419 -290.03,-696.39 -97.59,57.988 z m 134.59,-79.027 267.5,697 23.64,-50.793 -187.63,-711.7 -103.51,65.493 z m 142.97,-89.211 167.87,719.843 29.22,-30.91 -93.51,-749.4529 -103.58,60.5199 z m 140.52,-84.0902 80.96,749.7972 36.98,-23.61 L 1516.09,0 1429.95,57.5508 Z M 1553.71,1.48047 1570.09,770.613 1607.21,754.52 1650.16,43.9219 1553.71,1.48047 Z m 88.78,759.55453 35.19,4.047 L 1790.24,122.75 1688.3,62.8984 1642.49,761.035 Z m 183.41,-619.164 -123.13,622.543 38.02,16.473 199.39,-584.586 -114.28,-54.43 z m 149.77,68.52 -209.24,589.851 43.17,21.395 270.37,-556.528 -104.3,-54.718 z m 142.49,76.23 -284.83,576.957 24.36,64.504 380,-579.582 -119.53,-61.879 z m -252.18,668.793 1.93,70.146 517.48,-593.408 -109.47,-59.64 c 0,0 -410.15,575.39 -409.94,582.902 z M 2431.2,455.934 1898.42,1039.74 2558.07,512.578 2431.2,455.934 Z M 2596.51,541.598 1956,1038.14 2731.06,603.043 2596.51,541.598 Z m 185.4,87.613 -716.55,375.799 846.26,-309.233 -129.71,-66.566 z m 185.66,95.094 -784.91,262.429 952.74,-176.796 -167.83,-85.633 z M 1313.52,1318.32 c -13.48,0.35 -10.13,40.84 3.41,40.38 l 180.75,-6.64 c 73.63,-32.75 83.71,-128.39 -2.98,-169.84 49.67,-28.82 69.96,-87.5 60.95,-176.1 28.07,-111.831 151.17,-117.475 181.26,-18.194 l 1.26,66.254 -69.92,0.26 c -128.89,30.27 -173.29,237.02 -4.91,286.94 l 180.83,-3.32 c 12.33,-0.24 12.33,-37.26 0,-37.02 l -167.67,3.02 c -118.26,-19.62 -116.12,-196.12 4.67,-219.15 l 93.7,-2.62 -4.57,-106.794 c -41.48,-128.242 -219.28,-118.898 -247.66,26.634 7.73,100.22 -22.59,154.59 -87.32,173.48 l -126.25,6.78 c -12.21,0.67 -11.33,37 0.96,36.76 l 169.18,-3.63 c 55.12,18.92 49.62,80.83 6.9,97.97 l -172.59,4.83 z m -6.4,-198.36 c -11.51,0.17 -10.58,34.84 0.97,34.49 l 124.92,-3.4 c 42.06,-25.07 59.8,-58.48 66.43,-95.65 -33.31,-215.279 240.01,-274.189 303.71,-94.103 l 2.38,146.313 -121.98,1.9 c -106.58,29.6 -89.45,149.55 -0.3,167.19 l 161.17,-4.45 c 13.12,-0.38 12.05,-39.73 -1,-39.33 l -150.92,5.04 c -56.79,14.73 -82.62,-86.83 -3.12,-95.76 l 152.92,-2.56 -6.25,-165.945 c -25.92,-185.355 -343.83,-214.582 -369.76,13.504 6.91,71.691 -8.83,115.411 -47.33,131.271 l -111.84,1.49 z m 3.11,170.97 170.9,-6.34 c 27.37,-1.02 24.05,-41.16 -0.56,-40.61 l -171.55,4.22 c -14.2,0.35 -13.04,43.26 1.21,42.73 z m 364.57,-80.86 c -17.79,0.36 -25.18,-39.03 0.57,-39.5 l 165.15,-2.91 c 13.03,-0.2 14.35,38.83 1.34,39.07 l -167.06,3.34 z m 296.41,-47.44 c -0.51,-2.74 -1.1,-6.61 -1.89,-11.56 -0.77,-4.89 -1.26,-8.76 -1.56,-11.46 -7.81,-1.29 -14.75,-1.78 -20.85,-1.61 -5.82,0.15 -11.28,1.29 -16.27,3.32 -5.02,2.04 -9.53,5.3 -13.65,9.75 -4.09,4.46 -6.98,9.61 -8.63,15.55 -1.63,5.93 -2.39,12.51 -2.19,19.79 0.21,8.5 1.7,16.07 4.31,22.76 2.65,6.78 6.32,12.28 11.03,16.74 4.66,4.39 9.8,7.45 15.34,9.25 5.52,1.81 11.21,2.62 17.03,2.48 5.36,-0.18 11.95,-1.19 19.84,-3.2 l -0.06,-5.91 c -0.02,-2.62 0.01,-5.48 0.08,-8.53 l 0.12,-8.09 c -4.19,1.42 -7.6,2.41 -10.2,2.99 -2.62,0.53 -5.05,0.85 -7.26,0.94 -4.91,0.11 -9.36,-1.05 -13.35,-3.47 -3.99,-2.41 -7.13,-6.05 -9.49,-10.8 -2.4,-4.77 -3.7,-10.07 -3.85,-15.92 -0.15,-5.38 0.69,-9.98 2.49,-13.85 1.74,-3.93 4.19,-6.9 7.37,-9.14 3.15,-2.13 7.06,-3.26 11.79,-3.41 2.52,-0.09 5.39,0.09 8.42,0.55 3.02,0.47 6.85,1.4 11.43,2.83 z m 15.6,27.51 c 0.85,4.59 1.37,7.82 1.59,9.6 0.19,1.78 0.57,4.48 1.08,8.27 10.54,2.62 19.53,3.87 27.04,3.63 4.28,-0.11 8.18,-0.87 11.67,-2.18 3.55,-1.34 6.26,-3.46 8.19,-6.26 1.92,-2.79 2.77,-6.81 2.61,-11.96 -0.09,-2.65 -0.47,-8.53 -1.25,-17.7 -0.83,-9.22 -1.6,-21.24 -2.29,-36.12 -3.55,0.18 -7.09,0.32 -10.58,0.41 -3.45,0.12 -7.04,0.15 -10.87,0.17 0.64,5.16 1.5,15.75 2.61,31.88 -1.4,-0.79 -2.54,-1.34 -3.31,-1.75 -0.75,-0.32 -2.2,-0.81 -4.15,-1.54 -2,-0.76 -3.55,-1.31 -4.64,-1.78 -1.15,-0.46 -2.12,-1.13 -2.95,-1.89 -0.88,-0.81 -1.47,-1.57 -1.81,-2.42 -0.4,-0.84 -0.6,-1.74 -0.64,-2.82 -0.03,-1.57 0.44,-2.94 1.36,-4.11 0.96,-1.16 2.51,-1.77 4.65,-1.83 0.74,0 1.59,0.03 2.48,0.18 0.87,0.12 2.06,0.52 3.58,1.19 -1.15,-3.61 -2.54,-8.91 -4.18,-15.77 -3.16,-0.53 -6.1,-0.85 -8.91,-0.76 -4.48,0.14 -8.21,1.05 -11.11,2.73 -2.96,1.72 -5.2,4.37 -6.7,8.04 -1.5,3.67 -2.24,7.33 -2.14,10.92 0.06,2.26 0.41,4.39 1.06,6.45 0.7,2.1 1.68,4.14 3.03,6.12 1.32,1.98 2.84,3.66 4.61,5.09 1.69,1.37 4.06,2.65 7.08,3.84 2.97,1.17 6.75,2.27 11.33,3.26 1.88,0.44 3.66,0.85 5.23,1.4 1.58,0.5 2.72,0.91 3.42,1.31 0.63,0.38 1.22,0.84 1.64,1.37 0.45,0.46 0.73,1.05 0.95,1.66 0.19,0.52 0.29,1.16 0.32,1.8 0.06,1.78 -0.48,3.2 -1.64,4.16 -1.11,0.99 -2.83,1.52 -5.03,1.57 -6.23,0.18 -14.06,-1.86 -23.33,-6.16 z m 61.09,-53.1 2.41,33.89 1.59,26.51 0.43,11.44 c 4.04,-0.26 7.5,-0.38 10.56,-0.47 3.44,-0.09 6.78,-0.14 10.07,-0.14 l -0.63,-9.38 c 1.17,1.87 2.14,3.3 2.95,4.29 0.79,0.98 1.8,1.89 2.9,2.82 1.17,0.87 2.36,1.51 3.54,2.06 1.25,0.53 2.59,0.91 4.07,1.2 1.49,0.26 3.04,0.38 4.7,0.32 1.82,-0.03 3.55,-0.29 5.11,-0.73 1.57,-0.41 2.87,-0.99 3.96,-1.57 1.11,-0.64 2.08,-1.37 2.88,-2.24 0.83,-0.82 1.53,-1.78 2.11,-2.77 0.66,-1.04 1.34,-2.53 2.08,-4.45 1.69,2.94 3.45,5.21 5.23,6.7 1.88,1.48 3.93,2.59 6.17,3.23 2.31,0.66 4.64,0.95 7.02,0.9 3.14,-0.09 6.11,-0.73 8.87,-2.01 2.74,-1.25 4.96,-3.38 6.74,-6.26 1.69,-3 2.44,-6.7 2.33,-11.29 -0.04,-2.16 -0.25,-5.45 -0.6,-9.75 -0.41,-4.4 -0.89,-11.88 -1.63,-22.53 -0.68,-10.6 -1.1,-18.05 -1.29,-22.3 -3.35,0.2 -6.57,0.32 -9.67,0.41 -3.81,0.12 -7.74,0.17 -11.94,0.17 0.51,5.94 1.1,13.45 1.74,22.42 0.61,8.96 0.96,15.19 1.09,18.65 0.1,3.03 -0.13,5.33 -0.64,6.84 -0.51,1.55 -1.19,2.59 -2.02,3.12 -0.84,0.58 -1.76,0.84 -2.78,0.9 -1.05,0 -2.01,-0.23 -2.84,-0.7 -0.88,-0.52 -1.67,-1.39 -2.33,-2.56 -0.9,-1.54 -1.68,-3.52 -2.28,-5.85 -0.5,-1.84 -0.9,-4.63 -1.28,-8.38 -0.38,-3.87 -0.67,-8.91 -1.02,-15.23 l -0.92,-18.8 c -3.88,0.18 -7.41,0.32 -10.56,0.44 -3.16,0.02 -6.93,0.14 -11.21,0.14 0.44,4.17 0.99,11.15 1.67,21.02 0.72,9.84 1.15,16.42 1.25,19.76 0.09,2.8 -0.1,4.89 -0.53,6.35 -0.34,1.42 -0.94,2.53 -1.66,3.4 -0.77,0.85 -1.81,1.32 -3.09,1.37 -1.41,0.03 -2.65,-0.46 -3.72,-1.52 -1.11,-1.01 -2.07,-2.55 -2.86,-4.56 -0.78,-1.98 -1.39,-4.72 -1.8,-8.3 -0.4,-3.49 -0.83,-8.96 -1.28,-16.18 -0.42,-7.28 -0.83,-14.32 -1.09,-20.93 -4.34,0.21 -7.92,0.32 -10.64,0.41 -2.97,0.06 -6.73,0.14 -11.16,0.14 z m 108.89,77.86 c 0.37,5.56 0.61,9.99 0.71,13.19 0,0.99 0.04,2.24 0.03,3.79 4.39,-0.18 8.05,-0.35 11.03,-0.41 4.1,-0.12 7.68,-0.15 10.76,-0.18 -0.18,-1.48 -0.25,-2.65 -0.31,-3.61 l -0.6,-8.73 c -0.05,-1.31 -0.14,-2.88 -0.22,-4.63 -3.56,0.12 -7.04,0.32 -10.33,0.44 -3.38,0.09 -7.09,0.09 -11.07,0.14 z m -5.65,-80.71 c 0.61,5.7 1.16,10.39 1.53,14.12 0.3,3.69 0.7,8.41 1.13,14.17 0.38,5.77 0.76,12.17 1.15,19.13 0.35,7.01 0.7,15.13 1.08,24.39 4.74,-0.29 8.5,-0.38 11.26,-0.47 2.61,-0.08 6.32,-0.14 11.14,-0.17 -0.85,-8.82 -1.5,-16.62 -1.97,-23.38 -0.45,-6.66 -0.83,-13.77 -1.13,-21.24 -0.53,-13.36 -0.82,-22.42 -0.96,-27.19 -4.3,0.24 -8.05,0.38 -11.12,0.44 -3.12,0.08 -7.13,0.17 -12.11,0.2 z m 34.51,-0.96 c 1.36,10.63 2.43,22.36 3.34,35.22 0.93,12.87 1.65,25.03 2.03,36.56 4.36,-0.26 8.1,-0.38 11.29,-0.47 3.61,-0.08 7.17,-0.17 10.54,-0.14 l -0.83,-9.55 c 1.23,1.69 2.34,3.03 3.24,4.02 0.9,0.99 2,1.95 3.31,2.88 1.29,0.87 2.69,1.69 4.14,2.24 1.46,0.55 3.06,0.96 4.79,1.28 1.75,0.29 3.55,0.44 5.47,0.38 2.62,-0.06 5.13,-0.49 7.57,-1.28 2.45,-0.78 4.53,-1.87 6.13,-3.23 1.66,-1.46 3.03,-3.12 4.08,-5.16 1.04,-2.03 1.71,-4.21 2.03,-6.48 0.29,-2.33 0.44,-4.69 0.36,-7.16 -0.05,-1.78 -0.33,-5.62 -0.74,-11.5 l -1.65,-25.5 c -0.31,-5.01 -0.56,-9.61 -0.66,-13.89 -3.65,0.21 -7.1,0.33 -10.29,0.44 -4.31,0.12 -8.24,0.18 -11.75,0.15 0.43,4.28 0.91,10.59 1.55,19.01 0.55,8.41 0.96,14.37 1.04,17.75 0.15,5.33 -0.55,9.08 -2.09,11.18 -1.5,2.15 -3.42,3.23 -5.85,3.32 -2.07,0.02 -4.09,-0.79 -6.03,-2.57 -1.92,-1.71 -3.43,-4.25 -4.52,-7.65 -1.14,-3.35 -2.01,-8.97 -2.62,-16.71 -0.66,-7.77 -1.14,-15.69 -1.51,-23.78 -3.63,0.23 -7.14,0.35 -10.6,0.46 -3.62,0.09 -7.52,0.18 -11.77,0.18 z m 110.56,70.67 c 4.47,-0.14 8.79,-1.16 12.92,-3.02 4.06,-1.9 7.53,-4.54 10.25,-7.98 2.76,-3.49 4.8,-7.48 6.01,-11.96 1.24,-4.51 1.77,-9.35 1.62,-14.53 -0.13,-4.98 -0.85,-9.75 -2.17,-14.26 -1.37,-4.51 -3.53,-8.61 -6.55,-12.58 -2.99,-3.87 -6.8,-6.75 -11.28,-8.58 -4.53,-1.86 -9.29,-2.71 -14.32,-2.59 -4.59,0.15 -8.98,1.14 -13.17,2.97 -4.22,1.89 -7.65,4.54 -10.44,7.94 -2.76,3.41 -4.74,7.42 -6.04,12.14 -1.32,4.71 -1.9,9.58 -1.76,14.7 0.15,5.12 1.01,9.96 2.48,14.58 1.54,4.57 3.82,8.7 6.99,12.38 3.11,3.54 6.95,6.34 11.47,8.2 4.5,1.89 9.19,2.74 13.99,2.59 z m -0.96,-20.69 c -2.33,0.06 -4.41,-0.61 -6.24,-2.19 -1.87,-1.42 -3.29,-3.63 -4.33,-6.63 -0.96,-2.91 -1.51,-6.2 -1.6,-9.72 -0.17,-5.16 0.73,-9.12 2.61,-11.94 1.92,-2.79 4.36,-4.22 7.39,-4.34 2.28,-0.02 4.37,0.7 6.22,2.22 1.84,1.57 3.31,3.84 4.3,6.84 0.99,3.05 1.57,6.37 1.66,9.87 0.09,2.93 -0.23,5.52 -0.87,7.91 -0.67,2.39 -1.81,4.28 -3.42,5.74 -1.59,1.45 -3.5,2.18 -5.72,2.24 z m 38.42,-52.75 c -0.09,2.07 -0.18,4.22 -0.26,6.52 -0.07,2.31 -0.26,5.45 -0.45,9.38 l -0.31,5.12 c 3.46,-1.86 6.45,-3.29 9.01,-4.22 2.48,-0.93 4.79,-1.42 6.93,-1.49 1.79,-0.05 3.23,0.09 4.35,0.5 1.14,0.38 1.93,0.96 2.49,1.78 0.48,0.72 0.77,1.57 0.81,2.44 0.03,0.73 -0.13,1.49 -0.52,2.19 -0.34,0.78 -1.15,1.74 -2.49,3.08 -2.87,2.88 -5.41,5.53 -7.62,7.92 -2.25,2.38 -3.83,4.45 -4.94,6.26 -1.09,1.77 -1.92,3.78 -2.46,5.82 -0.57,2.03 -0.81,4.22 -0.74,6.43 0.11,3.9 1.06,7.48 2.88,10.85 1.82,3.3 4.47,5.71 7.85,7.17 3.36,1.36 7.45,2.03 12.32,1.89 4.99,-0.15 11.43,-1.11 19.2,-3.03 l 0.35,-19.85 c -4.33,2.42 -8.53,3.67 -12.61,3.81 -2.83,0.06 -4.94,-0.29 -6.24,-0.99 -1.27,-0.69 -1.99,-1.83 -2.01,-3.4 -0.03,-0.55 0.06,-1.02 0.21,-1.49 0.11,-0.46 0.36,-0.99 0.69,-1.48 0.4,-0.53 0.82,-1.11 1.4,-1.63 0.55,-0.58 1.84,-1.86 3.98,-3.9 2.11,-2.04 3.78,-3.64 5,-5.01 1.99,-2.09 3.42,-4.1 4.48,-5.88 0.99,-1.74 1.79,-3.64 2.3,-5.68 0.5,-1.97 0.72,-4.1 0.64,-6.28 -0.08,-3.32 -0.81,-6.38 -2.12,-9.2 -1.31,-2.7 -3.28,-4.98 -5.85,-6.78 -2.59,-1.83 -5.34,-3.03 -8.28,-3.72 -2.97,-0.62 -5.98,-0.94 -9.11,-0.85 -2.11,0.09 -4.76,0.38 -7.92,0.96 -3.16,0.52 -6.78,1.49 -10.96,2.76 z m 76.58,-35.68 c -0.86,11.26 -1.41,18.22 -1.73,20.99 2.26,-1.49 4.26,-2.42 6,-3.06 1.7,-0.52 3.2,-0.82 4.48,-0.85 1.4,-0.05 2.62,0.12 3.8,0.53 1.22,0.5 2.17,1.05 2.88,1.66 0.65,0.64 1.48,1.72 2.3,3.09 0.87,1.42 1.51,2.56 1.96,3.54 0.44,1.02 0.83,2.45 1.28,4.31 l -9.06,40.35 -7.88,33.47 c 5.42,-0.26 9.22,-0.38 11.4,-0.43 2.5,-0.09 5.97,-0.18 10.36,-0.15 0.6,-3.67 1.7,-9.93 3.32,-18.84 1.63,-8.93 2.77,-15.94 3.48,-20.95 0.39,-2.83 0.72,-6.29 1.03,-10.65 l 1.31,5.58 c 0.45,1.58 0.87,3.24 1.41,5.18 0.52,1.9 1.17,4.17 1.97,6.81 l 3.9,12.75 6.39,19.48 c 4.52,-0.23 7.96,-0.35 10.27,-0.44 2.02,-0.06 5.63,-0.12 10.87,-0.14 l -11.31,-30.39 -20.53,-56.42 c -1.37,-3.16 -2.59,-5.73 -3.8,-7.56 -1.06,-1.6 -2.25,-3.12 -3.49,-4.28 -1.21,-1.16 -2.49,-2.13 -3.82,-2.94 -1.89,-0.93 -3.94,-1.78 -6.09,-2.33 -2.4,-0.58 -4.85,-0.84 -7.3,-0.78 -1.16,0.05 -2.6,0.14 -4.45,0.43 -1.89,0.26 -3.35,0.56 -4.48,0.76 -1.14,0.29 -2.61,0.7 -4.47,1.28 z m 98.68,29.49 c 0.79,6.92 1.35,12.69 1.76,17.17 0.75,9.43 1.6,20.37 2.48,32.86 0.54,8.3 1.04,16.15 1.4,23.75 0.35,7.66 0.66,15.02 0.84,22.18 4.59,-0.17 8.33,-0.41 11.23,-0.46 3.9,-0.12 7.64,-0.12 11.1,-0.15 l -1.6,-17 c -0.26,-2.79 -0.71,-8.5 -1.37,-17.11 1.24,2.01 2.3,3.4 3.04,4.36 0.83,0.91 1.68,1.78 2.64,2.56 0.93,0.85 1.92,1.49 2.85,2.04 1.02,0.5 2.14,1.02 3.35,1.4 1.31,0.38 2.69,0.67 4.2,0.81 1.49,0.21 3.05,0.33 4.65,0.27 3.08,-0.12 6.05,-0.61 8.92,-1.57 2.87,-1.02 5.25,-2.59 7.23,-4.9 1.97,-2.29 3.25,-4.8 3.9,-7.56 0.63,-2.8 0.95,-5.79 0.86,-9.12 -0.04,-1.25 -0.07,-2.91 -0.26,-5.06 -0.09,-2.04 -0.26,-4.69 -0.52,-7.86 l -1.85,-23.69 c -0.25,-2.97 -0.43,-5.41 -0.46,-7.34 -0.05,-1.97 -0.14,-4.42 -0.24,-7.36 -3.77,0.21 -7.37,0.38 -10.82,0.44 -3.88,0.11 -7.78,0.17 -11.81,0.17 0.81,6.23 1.51,13.45 2.3,21.54 0.65,8.12 1.02,14.15 1.13,18.19 0.12,4.4 -0.48,7.54 -1.83,9.32 -1.38,1.83 -3.26,2.76 -5.65,2.88 -2.06,0.03 -3.97,-0.5 -5.63,-1.55 -1.47,-0.98 -2.78,-2.44 -3.96,-4.54 -0.96,-1.68 -1.82,-4.13 -2.55,-7.42 -0.8,-3.96 -1.57,-9.81 -2.15,-17.61 -0.34,-4.3 -0.73,-11.03 -1.21,-20.26 -3.62,0.21 -7.09,0.35 -10.26,0.41 -3.22,0.12 -7.1,0.17 -11.71,0.21 z m 110.49,70.7 c 4.49,-0.18 8.77,-1.17 12.9,-3.06 4.08,-1.89 7.57,-4.57 10.28,-7.97 2.75,-3.47 4.79,-7.46 6,-11.94 1.26,-4.54 1.77,-9.37 1.64,-14.55 -0.15,-4.98 -0.87,-9.75 -2.18,-14.27 -1.38,-4.48 -3.54,-8.64 -6.54,-12.57 -3,-3.87 -6.79,-6.75 -11.29,-8.56 -4.54,-1.89 -9.3,-2.76 -14.34,-2.62 -4.57,0.15 -8.96,1.14 -13.14,2.97 -4.23,1.87 -7.65,4.55 -10.43,7.95 -2.77,3.4 -4.73,7.42 -6.06,12.17 -1.32,4.68 -1.9,9.54 -1.76,14.66 0.13,5.13 0.98,9.99 2.49,14.56 1.51,4.6 3.83,8.73 6.94,12.43 3.18,3.52 6.99,6.31 11.52,8.21 4.52,1.86 9.16,2.73 13.97,2.59 z m -0.95,-20.76 c -2.3,0.12 -4.43,-0.58 -6.21,-2.12 -1.91,-1.43 -3.32,-3.67 -4.36,-6.67 -0.97,-2.91 -1.51,-6.2 -1.61,-9.69 -0.15,-5.21 0.76,-9.14 2.6,-11.96 1.94,-2.8 4.4,-4.22 7.4,-4.31 2.31,-0.06 4.35,0.67 6.24,2.21 1.83,1.51 3.32,3.81 4.27,6.84 0.99,3.03 1.61,6.32 1.68,9.87 0.07,2.94 -0.23,5.53 -0.89,7.89 -0.65,2.36 -1.78,4.28 -3.39,5.73 -1.6,1.46 -3.5,2.18 -5.73,2.21 z m 38.78,-54.05 2.51,31.18 1.05,17.96 c 0.11,3.2 0.23,6.51 0.35,9.92 0.07,3.38 0.17,7.66 0.27,12.75 4.35,-0.26 7.83,-0.35 10.39,-0.47 2.99,-0.03 6.45,-0.11 10.41,-0.11 l -0.48,-7.92 c 1.5,1.98 2.7,3.49 3.61,4.48 0.92,1.02 1.99,1.86 3.16,2.68 1.19,0.76 2.44,1.37 3.72,1.69 1.24,0.38 2.61,0.52 3.99,0.47 1.29,0 2.71,-0.3 4.31,-0.79 -0.1,-5.16 -0.13,-9.35 -0.05,-12.69 l 0.08,-10.86 c -2,0.82 -3.86,1.28 -5.59,1.31 -2.19,0.09 -4.05,-0.32 -5.66,-1.08 -1.59,-0.75 -2.99,-1.98 -4.28,-3.61 -1.24,-1.66 -2.3,-3.64 -3.07,-6.19 -0.8,-2.45 -1.41,-6.35 -1.82,-11.74 -0.45,-5.38 -0.79,-11.52 -0.98,-18.48 -0.07,-2.44 -0.08,-5.5 -0.04,-9.08 -3.49,0.17 -7.06,0.32 -10.57,0.41 -3.56,0.08 -7.3,0.14 -11.31,0.17 z m 53.18,79.41 c 0.43,5.5 0.61,9.98 0.69,13.18 0.03,0.99 0.04,2.24 0.09,3.79 4.33,-0.21 8.04,-0.33 11,-0.44 4.12,-0.09 7.65,-0.15 10.78,-0.15 -0.17,-1.45 -0.3,-2.62 -0.33,-3.64 l -0.57,-8.7 c -0.12,-1.31 -0.2,-2.91 -0.26,-4.66 -3.58,0.18 -7,0.38 -10.28,0.44 -3.45,0.09 -7.1,0.12 -11.12,0.18 z m -5.67,-80.72 c 0.68,5.68 1.21,10.39 1.53,14.12 0.36,3.67 0.78,8.38 1.12,14.17 0.42,5.79 0.8,12.11 1.19,19.13 0.36,7.01 0.73,15.13 1.12,24.36 4.67,-0.26 8.44,-0.38 11.29,-0.44 2.6,-0.12 6.23,-0.17 11.08,-0.17 -0.87,-8.85 -1.51,-16.65 -1.99,-23.38 -0.47,-6.69 -0.82,-13.76 -1.09,-21.24 -0.49,-13.36 -0.86,-22.44 -0.98,-27.22 -4.34,0.27 -7.99,0.38 -11.16,0.5 -3.04,0.05 -7.08,0.14 -12.11,0.17 z m 33.22,-0.93 c 0.3,5.21 0.61,12.26 1.01,21.08 1.5,1.65 2.82,3.14 3.93,4.5 l 22.7,26.81 c -8.98,0.21 -16.65,0 -22.98,-0.4 0.16,2.18 0.38,5.41 0.6,9.72 l 0.26,6.46 0.1,3.61 c 4.35,-0.27 12.59,-0.52 24.73,-0.84 9.66,-0.27 17.2,-0.44 22.57,-0.5 -0.23,-2.04 -0.73,-9.52 -1.42,-22.36 -1.43,-1.42 -2.62,-2.79 -3.58,-3.95 l -22.37,-25.73 c 3.46,-0.27 8.55,-0.5 15.04,-0.7 2.58,-0.03 5.58,0 8.98,0.06 -0.42,-3.47 -0.91,-9.82 -1.6,-19.1 -4.63,0.23 -12.64,0.53 -23.9,0.82 -11.04,0.29 -19.04,0.49 -24.07,0.52 z m 94.49,71.11 c 4.48,-0.12 8.79,-1.17 12.91,-3.03 4.13,-1.89 7.53,-4.57 10.34,-7.98 2.72,-3.46 4.72,-7.45 5.97,-11.96 1.22,-4.51 1.79,-9.37 1.63,-14.52 -0.13,-5.01 -0.92,-9.78 -2.21,-14.27 -1.34,-4.47 -3.53,-8.61 -6.55,-12.57 -3.03,-3.87 -6.75,-6.75 -11.28,-8.56 -4.51,-1.89 -9.3,-2.76 -14.28,-2.64 -4.61,0.17 -9.04,1.13 -13.18,2.99 -4.18,1.9 -7.72,4.55 -10.47,7.95 -2.72,3.4 -4.76,7.42 -6.05,12.17 -1.31,4.68 -1.91,9.54 -1.76,14.67 0.13,5.12 0.97,9.98 2.54,14.55 1.47,4.63 3.83,8.7 6.93,12.43 3.13,3.55 6.95,6.29 11.47,8.2 4.51,1.84 9.18,2.74 13.99,2.57 z m -0.92,-20.7 c -2.31,0.09 -4.45,-0.61 -6.26,-2.15 -1.89,-1.46 -3.3,-3.67 -4.28,-6.67 -1.03,-2.9 -1.6,-6.2 -1.69,-9.69 -0.14,-5.18 0.78,-9.14 2.67,-11.96 1.91,-2.8 4.38,-4.19 7.36,-4.28 2.29,-0.12 4.37,0.64 6.22,2.21 1.86,1.51 3.31,3.78 4.27,6.82 1.07,3.02 1.59,6.31 1.69,9.83 0.09,2.94 -0.26,5.56 -0.9,7.92 -0.64,2.36 -1.78,4.28 -3.35,5.73 -1.66,1.49 -3.55,2.19 -5.73,2.24 z m 38.28,-54.08 c 1.33,10.63 2.44,22.36 3.36,35.22 0.93,12.87 1.63,25.06 2,36.56 4.36,-0.26 8.1,-0.35 11.29,-0.46 3.62,-0.09 7.14,-0.15 10.53,-0.12 l -0.83,-9.55 c 1.24,1.69 2.36,3 3.25,3.99 0.9,0.96 2.01,1.98 3.3,2.88 1.33,0.9 2.68,1.69 4.15,2.24 1.46,0.56 3.07,0.96 4.79,1.31 1.73,0.29 3.53,0.41 5.45,0.38 2.62,-0.09 5.13,-0.49 7.59,-1.31 2.46,-0.79 4.52,-1.86 6.12,-3.26 1.68,-1.43 3,-3.08 4.07,-5.12 1.07,-2.04 1.74,-4.22 2.08,-6.49 0.24,-2.31 0.39,-4.69 0.33,-7.13 -0.04,-1.75 -0.33,-5.65 -0.74,-11.53 l -1.67,-25.5 c -0.3,-4.98 -0.53,-9.63 -0.66,-13.91 -3.63,0.26 -7.09,0.37 -10.26,0.46 -4.34,0.12 -8.24,0.18 -11.78,0.18 0.43,4.28 0.94,10.59 1.58,18.95 0.55,8.5 0.93,14.41 1.02,17.78 0.17,5.3 -0.57,9.11 -2.1,11.18 -1.51,2.18 -3.42,3.26 -5.85,3.29 -2.04,0.09 -4.08,-0.76 -6.01,-2.5 -1.89,-1.72 -3.43,-4.28 -4.54,-7.66 -1.09,-3.38 -1.98,-8.93 -2.62,-16.77 -0.64,-7.74 -1.15,-15.63 -1.51,-23.69 -3.61,0.17 -7.11,0.29 -10.57,0.41 -3.61,0.09 -7.54,0.17 -11.77,0.17 z m 117.17,17.46 c -0.79,-3.92 -1.43,-7.76 -2.03,-11.49 l -1.42,-8.53 c -3.61,-0.93 -6.42,-1.51 -8.44,-1.78 -2.04,-0.2 -3.96,-0.32 -5.85,-0.26 -3.12,0.12 -5.84,0.55 -8.2,1.26 -2.39,0.72 -4.31,2.09 -5.85,3.89 -1.56,1.9 -2.59,3.97 -3.1,6.32 -0.51,2.39 -0.73,4.86 -0.65,7.48 -0.02,0.5 0.04,1.34 0.08,2.51 0.11,1.16 0.28,3.9 0.66,7.94 l 1.85,24.4 -8.49,0.23 c 0.28,3.2 0.57,7.48 0.86,12.75 l 0.32,6.57 9,-0.23 c 0.33,2.12 0.71,6.84 1.23,14.06 l 9.36,2.21 c 1.72,0.38 5.35,1.4 10.97,2.97 -0.4,-6.17 -0.77,-12.75 -1.07,-19.82 l 12.38,-0.35 c -0.59,-9.75 -0.89,-16.24 -0.96,-19.36 l -12.53,0.35 -1.12,-17.61 c -0.16,-2.59 -0.23,-4.27 -0.25,-5.06 -0.04,-2.27 0.05,-4.13 0.42,-5.62 0.3,-1.51 0.97,-2.62 1.94,-3.26 0.9,-0.73 1.99,-1.05 3.13,-1.1 0.86,-0.04 1.77,0 2.71,0.17 0.94,0.14 2.6,0.58 5.05,1.36 z m 60.76,-1.1 c -0.53,-2.79 -1.6,-9.63 -3.26,-20.31 -4.25,-1.03 -7.76,-1.64 -10.66,-1.9 -2.89,-0.26 -5.79,-0.35 -8.7,-0.29 -4.35,0.09 -8.26,0.64 -11.86,1.48 -3.59,0.94 -6.72,2.36 -9.26,4.43 -2.57,2.01 -4.7,4.51 -6.43,7.54 -1.67,2.97 -2.91,6.49 -3.75,10.53 -0.8,4.11 -1.14,8.24 -1.01,12.49 0.15,6.03 1.21,11.85 3.23,17.55 2.01,5.74 4.5,10.16 7.5,13.28 3.01,3.2 6.49,5.35 10.3,6.63 3.8,1.23 7.73,1.84 11.75,1.69 4.1,-0.06 8.06,-0.78 11.73,-2.15 3.71,-1.34 6.85,-3.64 9.37,-6.81 2.52,-3.15 4.29,-6.7 5.31,-10.6 0.98,-3.96 1.41,-8.15 1.27,-12.69 -0.05,-2.65 -0.35,-5.68 -0.92,-8.87 l -38.13,0.95 c -0.03,-0.72 -0.06,-1.45 -0.09,-2.04 -0.11,-5.03 1.13,-8.81 3.89,-11.26 2.69,-2.5 6.1,-3.78 10.08,-3.9 2.42,-0.06 5.16,0.21 8.23,0.85 3.07,0.67 6.88,1.8 11.41,3.4 z m -32.79,23.69 17.96,-0.52 c 0.03,0.81 0.07,1.51 0.09,2.07 0.07,2.44 -0.19,4.54 -0.81,6.28 -0.62,1.78 -1.6,3.09 -2.79,3.87 -1.21,0.85 -2.62,1.29 -4.21,1.37 -1.04,0 -2.09,-0.17 -3.11,-0.58 -1.02,-0.44 -1.99,-1.08 -2.78,-1.95 -0.87,-0.87 -1.6,-1.8 -2.14,-2.88 -0.58,-1.08 -1.03,-2.24 -1.34,-3.26 -0.23,-1.05 -0.54,-2.56 -0.87,-4.4 z m 43.91,-43.92 c -0.08,2.07 -0.18,4.19 -0.25,6.46 -0.09,2.3 -0.25,5.48 -0.48,9.43 l -0.26,5.1 c 3.43,-1.83 6.43,-3.26 8.93,-4.19 2.51,-0.96 4.84,-1.43 7.02,-1.52 1.74,-0.03 3.17,0.12 4.33,0.47 1.11,0.44 1.9,1.02 2.48,1.8 0.46,0.76 0.82,1.57 0.82,2.48 0,0.73 -0.15,1.45 -0.53,2.18 -0.38,0.76 -1.22,1.75 -2.5,3.09 -2.89,2.85 -5.45,5.5 -7.63,7.86 -2.21,2.41 -3.87,4.48 -4.98,6.25 -1.1,1.84 -1.86,3.82 -2.44,5.85 -0.55,2.07 -0.79,4.25 -0.73,6.47 0.12,3.87 1.08,7.48 2.91,10.82 1.84,3.29 4.43,5.71 7.83,7.19 3.41,1.34 7.48,2.01 12.29,1.89 5.06,-0.14 11.49,-1.1 19.24,-3.05 l 0.34,-19.85 c -4.3,2.44 -8.55,3.66 -12.6,3.78 -2.85,0.09 -4.95,-0.26 -6.26,-0.93 -1.31,-0.73 -1.98,-1.89 -2.01,-3.44 -0.03,-0.55 0.03,-0.98 0.15,-1.45 0.15,-0.5 0.41,-0.99 0.76,-1.48 0.38,-0.59 0.84,-1.11 1.39,-1.66 0.56,-0.59 1.89,-1.87 3.99,-3.88 2.1,-2.03 3.79,-3.66 4.95,-5 2.01,-2.07 3.46,-4.1 4.54,-5.91 0.99,-1.75 1.78,-3.64 2.27,-5.65 0.5,-2.01 0.7,-4.1 0.67,-6.31 -0.12,-3.32 -0.78,-6.38 -2.13,-9.2 -1.33,-2.71 -3.25,-4.98 -5.85,-6.78 -2.56,-1.84 -5.32,-3.03 -8.29,-3.73 -2.97,-0.58 -6,-0.9 -9.08,-0.81 -2.16,0.02 -4.78,0.38 -7.92,0.93 -3.17,0.55 -6.78,1.51 -10.97,2.79 v 0" /></g></g></svg>